# xmcd
#
# Track frame offsets: 
#        150
#        12765
#        26667
#        40577
#        51015
#        64730
#        79790
#        95887
#        105717
#        117300
#        130017
#        147157
#        162865
#        177527
#        198017
#        221952
#        237330
#        255295
#        268665
#        280255
#        294517
#        306700
#        326040
#        340705
#
# Disc length: 4720 seconds
#
# Revision: 4
# Processed by: cddbd v1.4PL0 Copyright (c) Steve Scherf et al.
# Submitted via: ExactAudioCopy v0.90b4
#
DISCID=64126e18
DTITLE=Dwight Yoakam - Reprise Please Baby (The Warner Bros. Years) - 
DTITLE=Disc 1
DYEAR=2002
DGENRE=Country
TTITLE0=Honky Tonk Man
TTITLE1=Guitars, Cadillacs
TTITLE2=It Won't Hurt
TTITLE3=Miner's Prayer
TTITLE4=Little Sister
TTITLE5=Little Ways
TTITLE6=Please, Please Baby
TTITLE7=Always Late With Your Kisses
TTITLE8=This Drinkin' Will Kill Me
TTITLE9=Streets Of Bakersfield (With Buck Owens)
TTITLE10=I Sang Dixie
TTITLE11=I Got You
TTITLE12=I Hear You Knockin'
TTITLE13=Buenas Noches From A Lonely Room (She Wore Red Dresses)
TTITLE14=Long White Cadillac
TTITLE15=Turn It On, Turn It Up, Turn Me Loose
TTITLE16=You're The One
TTITLE17=Nothing's Changed Here
TTITLE18=It Only Hurts When I Cry
TTITLE19=The Heart That You Own
TTITLE20=The Distance Between You And Me
TTITLE21=Dangerous Man
TTITLE22=Send A Message To My Heart (With Patty Loveless)
TTITLE23=Takes A Lot To Rock You
EXTD=
EXTT0=
EXTT1=
EXTT2=
EXTT3=
EXTT4=
EXTT5=
EXTT6=
EXTT7=
EXTT8=
EXTT9=
EXTT10=
EXTT11=
EXTT12=
EXTT13=
EXTT14=
EXTT15=
EXTT16=
EXTT17=
EXTT18=
EXTT19=
EXTT20=
EXTT21=
EXTT22=
EXTT23=
PLAYORDER=
